<svg width="18" height="18" viewBox="0 0 18 18" fill="none" xmlns="http://www.w3.org/2000/svg">
<path d="M15.9844 0C17.1094 0 18 0.890625 18 2.01562V15.9844C18 17.1094 17.1094 18 15.9844 18H2.01562C0.890625 18 0 17.1094 0 15.9844V2.01562C0 0.890625 0.890625 0 2.01562 0H15.9844ZM5.01562 14.0156C5.53125 14.0156 6 13.5469 6 12.9844V9.98438C6 9.46875 5.53125 9 5.01562 9C4.45312 9 3.98438 9.46875 3.98438 9.98438V12.9844C3.98438 13.5469 4.45312 14.0156 5.01562 14.0156ZM9 14.0156C9.5625 14.0156 9.98438 13.5469 9.98438 12.9844V12C9.98438 11.4375 9.5625 11.0156 9 11.0156C8.4375 11.0156 8.01562 11.4375 8.01562 12V12.9844C8.01562 13.5469 8.4375 14.0156 9 14.0156ZM9 9C9.5625 9 9.98438 8.53125 9.98438 8.01562C9.98438 7.45312 9.5625 6.98438 9 6.98438C8.4375 6.98438 8.01562 7.45312 8.01562 8.01562C8.01562 8.53125 8.4375 9 9 9ZM12.9844 14.0156C13.5469 14.0156 14.0156 13.5469 14.0156 12.9844V5.01562C14.0156 4.45312 13.5469 3.98438 12.9844 3.98438C12.4688 3.98438 12 4.45312 12 5.01562V12.9844C12 13.5469 12.4688 14.0156 12.9844 14.0156Z" fill="#6E6B7B"/>
</svg>
