<svg width="20" height="18" viewBox="0 0 20 18" fill="none" xmlns="http://www.w3.org/2000/svg">
<path d="M18.0156 0.984375H1.98438C0.90625 0.984375 0.015625 1.92188 0.015625 3V15C0.015625 16.0781 0.90625 17.0156 1.98438 17.0156H18.0156C19.0938 17.0156 19.9844 16.0781 19.9844 15V3C19.9844 1.92188 19.0938 0.984375 18.0156 0.984375ZM17.5938 5.25L10.5156 9.65625C10.1875 9.89062 9.8125 9.89062 9.48438 9.65625L2.40625 5.25C2.17188 5.10938 1.98438 4.82812 1.98438 4.54688C1.98438 3.84375 2.73438 3.46875 3.29688 3.79688L10 8.01562L16.7031 3.79688C17.2656 3.46875 18.0156 3.84375 18.0156 4.54688C18.0156 4.82812 17.8281 5.10938 17.5938 5.25Z" fill="#6E6B7B"/>
</svg>
