<svg width="19" height="19" viewBox="0 0 19 19" fill="none" xmlns="http://www.w3.org/2000/svg">
<path d="M17.2188 12.2812L14.6875 11.9531C14.0781 11.9062 13.4688 12.0938 13.0469 12.5625L11.2188 14.3906C8.35938 12.9375 6.0625 10.6406 4.60938 7.78125L6.48438 5.95312C6.90625 5.53125 7.09375 4.92188 7.04688 4.3125L6.76562 1.78125C6.625 0.75 5.78125 0 4.75 0H3.01562C1.89062 0 0.953125 0.9375 1.04688 2.0625C1.5625 10.6406 8.40625 17.4375 16.9375 17.9531C18.0625 18.0469 19 17.1094 19 15.9844V14.25C19 13.2188 18.25 12.375 17.2188 12.2812Z" fill="#6E6B7B"/>
</svg>
